<?xml version="1.0" encoding="UTF-8"?>
<svg id="Capa_1" data-name="Capa 1" xmlns="http://www.w3.org/2000/svg" viewBox="0 0 1024 768">
  <g>
    <polygon points="493.79 513.95 541.07 550 460.71 709.08 388.29 723.38 493.79 513.95" fill="#fff"/>
    <path d="M370.15,294.39c1.44-1.12,2.78-2.34,3.95-3.68l20.68,72.6c-32.59,4.1-73.04-15.58-101.85-52.8-32.53-42.02-39.71-92.8-19.85-122.91l60.36,50.13c-1.69.83-3.28,1.85-4.81,3.03-14.1,10.92-16.23,31.77-4.76,46.58,11.47,14.81,32.18,17.96,46.28,7.04Z" fill="#fff"/>
    <polygon points="474 313.66 430.67 272.97 526.89 122.95 600.39 116.14 474 313.66" fill="#fff"/>
    <path d="M620.51,317.44c1.13,1.43,2.37,2.75,3.72,3.91l-72.35,21.54c-4.49-32.54,14.71-73.21,51.59-102.47,41.63-33.02,92.32-40.81,122.67-21.3l-49.41,60.95c-.85-1.68-1.89-3.25-3.09-4.77-11.08-13.97-31.96-15.85-46.63-4.21-14.68,11.64-17.58,32.39-6.49,46.36Z" fill="#fff"/>
    <path d="M594.53,542.32c-1.29,1.29-2.45,2.67-3.45,4.15l-29.78-69.37c31.8-8.23,74.43,6.13,107.76,39.36,37.63,37.52,51.24,86.97,35.38,119.37l-66.27-42.01c1.57-1.04,3.01-2.25,4.38-3.62,12.59-12.63,12.04-33.58-1.22-46.81-13.27-13.23-34.21-13.7-46.8-1.08Z" fill="#fff"/>
    <path d="M360.96,496.83c-.4-1.78-.94-3.51-1.64-5.14l74.5,12.19c-10.16,31.23-45.19,59.46-91.13,69.68-51.87,11.55-100.87-3.57-119.67-34.36l71.05-33.28c.03,1.88.28,3.75.7,5.64,3.87,17.41,21.83,28.21,40.12,24.14,18.29-4.07,29.95-21.47,26.07-38.88Z" fill="#fff"/>
    <polygon points="582.12 411.32 607.8 357.7 779.9 404.04 808.62 472.03 582.12 411.32" fill="#fff"/>
    <polygon points="382.88 438.34 341.47 480.99 193.08 382.28 187.5 308.67 382.88 438.34" fill="#fff"/>
  </g>
  <g>
    <polygon points="493.79 513.95 541.07 550 460.71 709.08 388.29 723.38 493.79 513.95" fill="#f3313f"/>
    <path d="M370.15,294.39c1.44-1.12,2.78-2.34,3.95-3.68l20.68,72.6c-32.59,4.1-73.04-15.58-101.85-52.8-32.53-42.02-39.71-92.8-19.85-122.91l60.36,50.13c-1.69.83-3.28,1.85-4.81,3.03-14.1,10.92-16.23,31.77-4.76,46.58,11.47,14.81,32.18,17.96,46.28,7.04Z" fill="#f3313f"/>
    <polygon points="474 313.66 430.67 272.97 526.89 122.95 600.39 116.14 474 313.66" fill="#f3313f"/>
    <path d="M620.51,317.44c1.13,1.43,2.37,2.75,3.72,3.91l-72.35,21.54c-4.49-32.54,14.71-73.21,51.59-102.47,41.63-33.02,92.32-40.81,122.67-21.3l-49.41,60.95c-.85-1.68-1.89-3.25-3.09-4.77-11.08-13.97-31.96-15.85-46.63-4.21-14.68,11.64-17.58,32.39-6.49,46.36Z" fill="#f3313f"/>
    <path d="M594.53,542.32c-1.29,1.29-2.45,2.67-3.45,4.15l-29.78-69.37c31.8-8.23,74.43,6.13,107.76,39.36,37.63,37.52,51.24,86.97,35.38,119.37l-66.27-42.01c1.57-1.04,3.01-2.25,4.38-3.62,12.59-12.63,12.04-33.58-1.22-46.81-13.27-13.23-34.21-13.7-46.8-1.08Z" fill="#f3313f"/>
    <path d="M360.96,496.83c-.4-1.78-.94-3.51-1.64-5.14l74.5,12.19c-10.16,31.23-45.19,59.46-91.13,69.68-51.87,11.55-100.87-3.57-119.67-34.36l71.05-33.28c.03,1.88.28,3.75.7,5.64,3.87,17.41,21.83,28.21,40.12,24.14,18.29-4.07,29.95-21.47,26.07-38.88Z" fill="#f3313f"/>
    <polygon points="582.12 411.32 607.8 357.7 779.9 404.04 808.62 472.03 582.12 411.32" fill="#f3313f"/>
    <polygon points="382.88 438.34 341.47 480.99 193.08 382.28 187.5 308.67 382.88 438.34" fill="#f3313f"/>
  </g>
</svg>